<mxfile host="app.diagrams.net" modified="2023-04-21T05:44:06.760Z" agent="Mozilla/5.0 (Windows NT 10.0; Win64; x64) AppleWebKit/537.36 (KHTML, like Gecko) Chrome/111.0.0.0 Safari/537.36" version="21.2.1" etag="O4Hfur2bzGI-nZAM1jxC" type="github">
  <diagram name="第 1 页" id="6yHVRw4_shaSKZi5AKcY">
    <mxGraphModel>
      <root>
        <mxCell id="0" />
        <mxCell id="1" parent="0" />
      </root>
    </mxGraphModel>
  </diagram>
</mxfile>
